<svg width="225" height="68" viewBox="0 0 225 68" fill="none" xmlns="http://www.w3.org/2000/svg">
<path d="M27.2888 1.728C27.2461 1.77067 27.1821 1.87733 27.0968 2.048C27.0541 2.21866 27.0328 2.51733 27.0328 2.944C27.0328 3.54133 27.1181 4.11733 27.2888 4.672V25.856C27.2888 28.032 27.0754 30.1227 26.6488 32.128C26.2221 34.1333 25.4754 35.9253 24.4088 37.504C23.3848 39.04 21.9554 40.256 20.1208 41.152C18.3288 42.0907 16.0248 42.56 13.2088 42.56H12.3767C9.94475 42.56 7.96075 42.2187 6.42475 41.536C4.93142 40.896 3.75808 40.064 2.90475 39.04C2.05142 38.016 1.47542 36.9067 1.17675 35.712C0.878083 34.4747 0.72875 33.3013 0.72875 32.192C0.72875 31.2533 0.85675 30.3573 1.11275 29.504C1.32608 28.608 1.66742 27.84 2.13675 27.2C2.56342 26.5173 3.09675 25.984 3.73675 25.6C4.37675 25.1733 5.10208 24.96 5.91275 24.96C6.68075 24.96 7.17142 25.1733 7.38475 25.6C7.59808 25.984 7.70475 26.3893 7.70475 26.816C7.70475 27.7547 7.51275 28.544 7.12875 29.184C6.74475 29.7813 6.31808 30.3147 5.84875 30.784C5.42208 31.2533 5.01675 31.7227 4.63275 32.192C4.24875 32.6613 4.05675 33.2373 4.05675 33.92C4.05675 35.968 4.73942 37.44 6.10475 38.336C7.47008 39.232 9.17675 39.68 11.2248 39.68C13.0168 39.68 14.5741 39.3173 15.8968 38.592C17.2194 37.8667 18.3074 36.9493 19.1608 35.84C20.0568 34.7307 20.7181 33.536 21.1448 32.256C21.5714 30.9333 21.7847 29.696 21.7847 28.544L20.8248 28.608C19.2888 28.608 17.9448 28.2667 16.7928 27.584C15.6834 26.8587 14.7448 25.9627 13.9768 24.896C13.2514 23.8293 12.6968 22.6773 12.3128 21.44C11.9714 20.2027 11.8008 19.0507 11.8008 17.984V15.744C11.8008 14.9333 11.9074 13.9947 12.1208 12.928C12.3341 11.8187 12.6328 10.688 13.0168 9.536C13.4008 8.34133 13.8701 7.18933 14.4248 6.08C14.9794 4.928 15.5768 3.904 16.2168 3.008C16.8568 2.112 17.5394 1.38666 18.2648 0.831997C18.9901 0.277332 19.7368 0 20.5048 0C20.8034 0 21.1448 0.0639992 21.5288 0.191998L26.0088 0.511997C26.3074 0.554663 26.5848 0.66133 26.8408 0.831997C27.1394 1.00266 27.2888 1.30133 27.2888 1.728ZM21.7847 9.408C21.8701 9.06667 21.9554 8.74666 22.0408 8.448C22.1261 8.14933 22.1688 7.808 22.1688 7.424C22.1688 6.86933 22.0194 6.37867 21.7208 5.952C21.4648 5.48266 20.9741 5.248 20.2488 5.248C19.3101 5.248 18.5421 5.632 17.9448 6.4C17.3474 7.168 16.8781 8.08533 16.5368 9.152C16.2381 10.2187 16.0248 11.328 15.8968 12.48C15.7688 13.632 15.7048 14.5707 15.7048 15.296C15.7048 15.8507 15.7474 16.6613 15.8328 17.728C15.9181 18.752 16.1101 19.776 16.4088 20.8C16.7501 21.824 17.1981 22.72 17.7528 23.488C18.3501 24.256 19.1394 24.64 20.1208 24.64C20.2061 24.64 20.4408 24.6187 20.8248 24.576C21.2514 24.5333 21.5714 24.4693 21.7847 24.384V9.408ZM41.9723 26.048C41.3323 26.944 40.7989 27.9467 40.3723 29.056C39.9883 30.1227 39.6469 31.2533 39.3483 32.448C39.0496 33.6 38.7936 34.7733 38.5803 35.968C38.4096 37.12 38.2176 38.2293 38.0043 39.296C37.9189 39.552 37.5776 39.7227 36.9803 39.808C36.4256 39.8933 36.0203 39.936 35.7643 39.936C34.9963 39.936 34.3563 39.8933 33.8443 39.808C33.3749 39.7227 33.0123 39.5307 32.7563 39.232C32.5003 38.8907 32.3083 38.4 32.1803 37.76C32.0523 37.0773 31.9456 36.1813 31.8603 35.072L32.6923 16.064C32.6923 15.5093 32.9909 15.232 33.5883 15.232C33.8016 15.232 34.1003 15.2747 34.4843 15.36C34.8683 15.4027 35.2736 15.488 35.7003 15.616C36.1269 15.744 36.4896 15.9147 36.7883 16.128C37.0869 16.2987 37.2363 16.512 37.2363 16.768V29.76C37.2789 29.7173 37.3429 29.5467 37.4283 29.248C37.7269 28.48 38.0896 27.5413 38.5163 26.432C38.9429 25.28 39.4123 24.192 39.9243 23.168C40.4363 22.144 40.9696 21.2693 41.5243 20.544C42.1216 19.8187 42.7189 19.456 43.3163 19.456C44.0843 19.456 44.6603 19.648 45.0443 20.032C45.4709 20.3733 45.7909 20.8213 46.0043 21.376C46.2176 21.9307 46.3456 22.528 46.3883 23.168C46.4309 23.808 46.4523 24.4267 46.4523 25.024C46.4523 25.4507 46.4096 26.1547 46.3243 27.136C46.2389 28.1173 46.1963 29.5893 46.1963 31.552C46.1963 32.6613 46.3029 33.664 46.5163 34.56C46.7296 35.456 47.1563 35.904 47.7963 35.904C48.2656 35.904 48.6923 35.6907 49.0763 35.264C49.4603 34.8373 49.8016 34.304 50.1003 33.664C50.4416 33.024 50.7189 32.3413 50.9323 31.616C51.1456 30.8907 51.2736 30.208 51.3163 29.568C51.3589 28.7573 51.6789 28.352 52.2763 28.352C52.6603 28.352 52.9163 28.48 53.0443 28.736C53.1723 28.992 53.2363 29.2907 53.2363 29.632V29.76C53.1936 30.6133 53.0229 31.5733 52.7243 32.64C52.4683 33.7067 52.0629 34.7093 51.5083 35.648C50.9963 36.5867 50.3136 37.376 49.4603 38.016C48.6069 38.656 47.5616 38.976 46.3243 38.976C44.4043 38.976 43.1669 38.2933 42.6123 36.928C42.1003 35.52 41.8443 33.4507 41.8443 30.72L41.9723 26.048ZM66.9123 36.032C66.9123 37.056 66.5709 37.8453 65.8883 38.4C65.2056 38.9547 64.4163 39.36 63.5203 39.616C62.6669 39.872 61.7923 40.0213 60.8963 40.064C60.0429 40.1493 59.4243 40.192 59.0403 40.192C58.4429 40.192 57.6963 40.128 56.8003 40C55.9469 39.872 55.0936 39.68 54.2403 39.424C53.4296 39.1253 52.7256 38.72 52.1283 38.208C51.5736 37.696 51.2963 37.056 51.2963 36.288C51.2963 35.8187 51.4669 35.4987 51.8083 35.328C52.1923 35.1147 52.5549 35.008 52.8963 35.008C53.3656 35.008 53.8136 35.1787 54.2403 35.52C54.7096 35.8613 55.1789 36.224 55.6483 36.608C56.1603 36.992 56.7149 37.3547 57.3123 37.696C57.9096 38.0373 58.5923 38.208 59.3603 38.208C59.7016 38.208 60.1496 38.1013 60.7043 37.888C61.3016 37.632 61.6003 37.2053 61.6003 36.608C61.6003 36.0107 61.3443 35.4347 60.8323 34.88C60.3629 34.3253 59.7443 33.7493 58.9763 33.152C58.2509 32.5547 57.4616 31.936 56.6083 31.296C55.7549 30.656 54.9443 29.9733 54.1763 29.248C53.4509 28.48 52.8323 27.648 52.3203 26.752C51.8509 25.856 51.6163 24.8747 51.6163 23.808C51.6163 22.3147 52.0856 21.056 53.0243 20.032C54.0056 19.008 55.1363 18.1973 56.4163 17.6C57.7389 17.0027 59.0829 16.576 60.4483 16.32C61.8136 16.064 62.8803 15.936 63.6483 15.936C64.3736 15.936 65.0989 16.0853 65.8243 16.384C66.5496 16.6827 66.9123 17.2587 66.9123 18.112C66.9123 18.368 66.8483 18.752 66.7203 19.264C66.6349 19.7333 66.4643 20.2027 66.2083 20.672C65.9949 21.1413 65.6963 21.568 65.3123 21.952C64.9283 22.2933 64.4376 22.464 63.8403 22.464C63.6696 22.464 63.4989 22.4 63.3283 22.272C63.1576 22.1013 62.9656 21.9307 62.7523 21.76C62.5389 21.5467 62.3043 21.376 62.0483 21.248C61.8349 21.0773 61.5789 20.992 61.2803 20.992C59.7869 20.992 58.7416 21.44 58.1443 22.336C57.5469 23.1893 57.2483 24.1067 57.2483 25.088C57.2483 25.9413 57.7389 26.8373 58.7203 27.776C59.7443 28.7147 60.8536 29.6533 62.0483 30.592C63.2856 31.5307 64.3949 32.4693 65.3763 33.408C66.4003 34.304 66.9123 35.1787 66.9123 36.032ZM68.2908 28.416C68.3334 26.24 68.3974 24.0213 68.4828 21.76C68.5681 19.4987 68.6534 17.408 68.7388 15.488C68.7388 15.1467 68.3974 14.912 67.7148 14.784C67.0321 14.656 66.2641 14.528 65.4108 14.4C64.5574 14.272 63.7894 14.08 63.1068 13.824C62.4241 13.5253 62.0827 13.056 62.0827 12.416C62.0827 11.8613 62.6374 11.5413 63.7467 11.456C64.8561 11.3707 66.4988 11.328 68.6748 11.328C68.8454 11.328 68.9521 11.072 68.9948 10.56C69.0801 10.048 69.1228 9.408 69.1228 8.64C69.1654 7.82933 69.1868 6.976 69.1868 6.08C69.2294 5.184 69.2721 4.352 69.3148 3.584C69.3574 2.77333 69.4214 2.112 69.5068 1.6C69.6348 1.088 69.7841 0.831997 69.9548 0.831997C70.1681 0.831997 70.5521 0.874664 71.1068 0.959999C71.6614 1.04533 72.2374 1.17333 72.8348 1.344C73.4321 1.472 73.9441 1.64267 74.3708 1.856C74.8401 2.06933 75.0748 2.304 75.0748 2.56L74.3708 10.88C74.3708 11.136 74.5841 11.328 75.0108 11.456C75.4801 11.5413 76.0561 11.6053 76.7388 11.648C77.4641 11.648 78.2108 11.648 78.9788 11.648C79.7894 11.648 80.5361 11.712 81.2188 11.84C81.9441 11.968 82.5201 12.1813 82.9468 12.48C83.4161 12.736 83.6508 13.1413 83.6508 13.696C83.6508 13.7813 83.6081 13.9307 83.5228 14.144C83.4374 14.3147 83.3308 14.4 83.2028 14.4C83.1174 14.4 82.9894 14.336 82.8188 14.208C82.6908 14.08 82.3068 14.016 81.6667 14.016C81.4961 14.016 81.0268 14.0373 80.2588 14.08C79.4908 14.1227 78.6801 14.1867 77.8268 14.272C76.9734 14.3573 76.1841 14.464 75.4588 14.592C74.7761 14.6773 74.3921 14.8053 74.3068 14.976C74.2641 15.0613 74.2001 15.5733 74.1148 16.512C74.0721 17.408 74.0081 18.6027 73.9228 20.096C73.8801 21.5893 73.8374 23.3173 73.7948 25.28C73.7521 27.2 73.7308 29.2267 73.7308 31.36C73.7308 32.1707 73.7734 32.96 73.8588 33.728C73.9441 34.496 74.0721 35.2 74.2428 35.84C74.4134 36.4373 74.6268 36.928 74.8828 37.312C75.1814 37.696 75.5228 37.888 75.9068 37.888C76.4614 37.888 76.9734 37.6533 77.4428 37.184C77.9121 36.7147 78.3388 36.0747 78.7228 35.264C79.1068 34.4533 79.4481 33.536 79.7468 32.512C80.0454 31.488 80.3014 30.4427 80.5148 29.376C80.6428 28.736 80.7921 28.288 80.9628 28.032C81.1334 27.7333 81.3894 27.584 81.7308 27.584C82.0294 27.584 82.2854 27.6907 82.4988 27.904C82.7548 28.0747 82.8828 28.5013 82.8828 29.184C82.8828 29.6107 82.8614 29.888 82.8188 30.016C82.6908 30.784 82.4348 31.8507 82.0508 33.216C81.7094 34.5387 81.2188 35.8613 80.5788 37.184C79.9814 38.464 79.2348 39.5947 78.3388 40.576C77.4428 41.5573 76.3974 42.048 75.2028 42.048C74.0508 42.048 73.0481 41.7067 72.1948 41.024C71.3414 40.384 70.6161 39.488 70.0188 38.336C69.4641 37.1413 69.0374 35.7547 68.7388 34.176C68.4401 32.5547 68.2908 30.8267 68.2908 28.992V28.416ZM106.27 33.024C106.184 33.6213 105.971 34.3253 105.63 35.136C105.288 35.9467 104.84 36.736 104.286 37.504C103.774 38.2293 103.155 38.848 102.43 39.36C101.747 39.872 100.979 40.128 100.126 40.128C98.8458 40.128 97.7151 39.6373 96.7338 38.656C95.7951 37.6747 95.2191 36.288 95.0058 34.496C94.7498 35.1787 94.4511 35.968 94.1098 36.864C93.7684 37.76 93.3418 38.592 92.8298 39.36C92.3178 40.128 91.7204 40.768 91.0378 41.28C90.3978 41.8347 89.6298 42.112 88.7338 42.112C88.4778 42.112 88.2858 42.0907 88.1578 42.048C88.0298 42.0053 87.8804 41.9413 87.7098 41.856C87.5818 41.8133 87.4111 41.7707 87.1978 41.728C87.0271 41.6853 86.7711 41.664 86.4298 41.664C85.4058 41.664 84.5311 41.3227 83.8058 40.64C83.1231 40 82.5684 39.168 82.1418 38.144C81.7151 37.12 81.3951 36.0107 81.1818 34.816C81.0111 33.5787 80.9258 32.4267 80.9258 31.36C80.9258 28.8 81.0538 26.368 81.3098 24.064C81.6084 21.76 82.0778 19.7333 82.7178 17.984C83.3578 16.192 84.1898 14.784 85.2138 13.76C86.2378 12.6933 87.4751 12.16 88.9258 12.16C89.7791 12.16 90.4191 12.2453 90.8458 12.416C91.3151 12.544 91.7418 12.7147 92.1258 12.928C92.5098 13.0987 92.9151 13.2907 93.3418 13.504C93.8111 13.7173 94.4511 13.888 95.2618 14.016C96.1578 14.528 96.7764 15.1467 97.1178 15.872C97.5018 16.5547 97.7364 17.3013 97.8218 18.112C97.9498 18.9227 97.9924 19.776 97.9498 20.672C97.9071 21.5253 97.9498 22.3787 98.0778 23.232C98.0778 23.2747 98.1631 23.3387 98.3338 23.424C98.5471 23.5093 98.7818 23.616 99.0378 23.744C99.2938 23.8293 99.5071 23.9787 99.6778 24.192C99.8911 24.3627 99.9978 24.5973 99.9978 24.896V25.152C99.5711 26.2613 99.3151 27.2427 99.2298 28.096C99.1444 28.9493 99.1018 29.9733 99.1018 31.168C99.1018 31.7653 99.1231 32.4267 99.1658 33.152C99.2511 33.8347 99.3578 34.496 99.4858 35.136C99.6564 35.7333 99.8911 36.2453 100.19 36.672C100.488 37.056 100.872 37.248 101.342 37.248C101.854 37.248 102.302 36.992 102.686 36.48C103.112 35.968 103.454 35.392 103.71 34.752C104.008 34.0693 104.243 33.3867 104.414 32.704C104.627 32.0213 104.755 31.5093 104.798 31.168C104.883 30.656 105.096 30.4 105.438 30.4C105.651 30.4 105.843 30.528 106.014 30.784C106.227 30.9973 106.334 31.4027 106.334 32C106.334 32.1707 106.334 32.3413 106.334 32.512C106.334 32.64 106.312 32.8107 106.27 33.024ZM94.4298 22.656C94.4298 22.1867 94.3871 21.632 94.3018 20.992C94.2164 20.352 94.0671 19.7547 93.8538 19.2C93.6404 18.6453 93.3204 18.176 92.8938 17.792C92.4671 17.408 91.8911 17.216 91.1658 17.216C89.9711 17.216 88.9898 17.7707 88.2218 18.88C87.4964 19.9467 86.9204 21.2267 86.4938 22.72C86.0671 24.1707 85.7898 25.6853 85.6618 27.264C85.5338 28.8 85.4698 30.016 85.4698 30.912C85.4698 31.5947 85.4911 32.4267 85.5338 33.408C85.6191 34.3467 85.7471 35.2427 85.9178 36.096C86.0884 36.9493 86.3231 37.6747 86.6218 38.272C86.9631 38.8693 87.3898 39.168 87.9018 39.168C89.1391 39.168 90.0778 38.6987 90.7178 37.76C91.4004 36.7787 91.9124 35.584 92.2538 34.176C92.5951 32.7253 92.8298 31.1893 92.9578 29.568C93.1284 27.904 93.2778 26.3893 93.4058 25.024C93.4911 24.2987 93.6831 23.8507 93.9818 23.68C94.2804 23.4667 94.4298 23.3173 94.4298 23.232V22.656ZM125.616 41.664C125.616 42.0907 125.424 42.3893 125.04 42.56C124.656 42.7307 124.293 42.816 123.952 42.816L122.672 42.688C122.458 42.688 122.352 42.816 122.352 43.072L122.288 43.84C122.33 44.992 122.352 46.4427 122.352 48.192C122.352 49.9413 122.352 51.6267 122.352 53.248C122.352 54.9547 122.288 56.6187 122.16 58.24C122.074 59.904 121.84 61.376 121.456 62.656C121.072 63.9787 120.517 65.024 119.792 65.792C119.109 66.6027 118.149 67.008 116.912 67.008C115.845 67.008 114.714 66.944 113.52 66.816C112.368 66.7307 111.301 66.4747 110.32 66.048C109.381 65.6213 108.592 64.9813 107.952 64.128C107.354 63.3173 107.056 62.208 107.056 60.8C107.056 59.392 107.205 57.9413 107.504 56.448C107.845 54.9973 108.314 53.568 108.912 52.16C109.509 50.7947 110.213 49.472 111.024 48.192C111.877 46.9547 112.794 45.8453 113.776 44.864C114.288 44.352 114.842 43.8187 115.44 43.264C116.08 42.752 116.634 42.3253 117.104 41.984V41.92C117.189 41.024 117.253 40.128 117.296 39.232C117.338 38.336 117.36 37.4187 117.36 36.48C117.146 36.864 116.89 37.3973 116.592 38.08C116.293 38.72 115.93 39.3387 115.504 39.936C115.12 40.5333 114.672 41.0453 114.16 41.472C113.648 41.9413 113.072 42.176 112.432 42.176C112.09 42.176 111.792 42.112 111.536 41.984C111.28 41.856 110.917 41.792 110.448 41.792C109.253 41.7067 108.25 41.3867 107.44 40.832C106.672 40.2773 106.053 39.5093 105.584 38.528C105.157 37.5467 104.858 36.3947 104.688 35.072C104.517 33.7067 104.432 32.192 104.432 30.528C104.432 28.5227 104.538 26.4533 104.752 24.32C105.008 22.1867 105.434 20.2453 106.032 18.496C106.629 16.704 107.418 15.2533 108.4 14.144C109.424 12.992 110.704 12.416 112.24 12.416C112.41 12.416 112.624 12.48 112.88 12.608C113.178 12.736 113.477 12.8853 113.776 13.056C114.117 13.184 114.437 13.3333 114.736 13.504C115.077 13.632 115.333 13.7173 115.504 13.76C116.357 13.9307 117.146 14.144 117.872 14.4C118.597 14.656 119.216 14.9973 119.728 15.424C120.24 15.808 120.645 16.3413 120.944 17.024C121.242 17.664 121.392 18.4747 121.392 19.456C121.392 20.1387 121.328 20.7573 121.2 21.312C121.114 21.8667 121.072 22.5707 121.072 23.424C121.072 23.7653 121.2 24 121.456 24.128C121.712 24.256 121.989 24.3627 122.288 24.448C122.629 24.5333 122.928 24.64 123.184 24.768C123.44 24.8533 123.568 25.0667 123.568 25.408C123.568 25.4933 123.461 25.7067 123.248 26.048C123.077 26.3467 122.97 26.5387 122.928 26.624C122.8 26.9653 122.693 27.52 122.608 28.288C122.522 29.0133 122.458 29.824 122.416 30.72C122.373 31.5733 122.33 32.4693 122.288 33.408C122.288 34.304 122.288 35.1147 122.288 35.84C122.288 36.3947 122.288 37.1413 122.288 38.08C122.288 38.976 122.309 39.7227 122.352 40.32H122.608C122.693 40.32 122.778 40.2987 122.864 40.256C122.949 40.256 123.013 40.256 123.056 40.256C123.44 40.256 123.952 40.3627 124.592 40.576C125.274 40.832 125.616 41.1947 125.616 41.664ZM117.424 21.888C117.424 21.4187 117.381 20.8853 117.296 20.288C117.21 19.6907 117.061 19.136 116.848 18.624C116.634 18.0693 116.314 17.6213 115.888 17.28C115.504 16.896 115.013 16.704 114.416 16.704C113.605 16.704 112.837 17.024 112.112 17.664C111.429 18.304 110.81 19.2213 110.256 20.416C109.744 21.568 109.317 22.9973 108.976 24.704C108.677 26.368 108.528 28.2667 108.528 30.4C108.528 31.296 108.549 32.2347 108.592 33.216C108.677 34.1547 108.784 35.008 108.912 35.776C109.082 36.544 109.317 37.184 109.616 37.696C109.957 38.208 110.384 38.464 110.896 38.464C111.792 38.464 112.581 38.08 113.264 37.312C113.946 36.544 114.501 35.6053 114.928 34.496C115.397 33.344 115.738 32.1707 115.952 30.976C116.208 29.7387 116.357 28.672 116.4 27.776C116.442 26.5387 116.506 25.7067 116.592 25.28C116.677 24.8107 116.762 24.512 116.848 24.384C117.104 24.0427 117.253 23.6373 117.296 23.168C117.381 22.6987 117.424 22.272 117.424 21.888ZM117.168 44.16C116.186 44.8427 115.248 45.8027 114.352 47.04C113.498 48.2773 112.752 49.6213 112.112 51.072C111.472 52.5227 110.96 53.9947 110.576 55.488C110.234 56.9813 110.064 58.3253 110.064 59.52C110.064 59.9467 110.106 60.416 110.192 60.928C110.277 61.44 110.405 61.9093 110.576 62.336C110.789 62.8053 111.066 63.1893 111.408 63.488C111.792 63.7867 112.24 63.936 112.752 63.936C113.648 63.936 114.373 63.552 114.928 62.784C115.525 62.0587 115.973 61.184 116.272 60.16C116.613 59.136 116.826 58.0907 116.912 57.024C117.04 55.9573 117.104 55.104 117.104 54.464C117.104 54.336 117.104 54.144 117.104 53.888C117.104 53.632 117.104 53.1413 117.104 52.416C117.146 51.6907 117.168 50.6667 117.168 49.344C117.168 48.064 117.168 46.336 117.168 44.16ZM144.724 30.976C144.724 31.2747 144.617 32 144.404 33.152C144.233 34.2613 143.892 35.456 143.38 36.736C142.91 37.9733 142.249 39.0827 141.396 40.064C140.585 41.0453 139.54 41.536 138.26 41.536C136.894 41.536 135.806 41.0453 134.996 40.064C134.185 39.1253 133.566 37.9947 133.14 36.672C132.713 35.3067 132.436 33.8987 132.308 32.448C132.18 30.9547 132.116 29.7173 132.116 28.736C132.116 27.6267 132.18 26.5173 132.308 25.408C132.436 24.256 132.521 23.1253 132.564 22.016C132.564 21.6747 132.393 21.4613 132.052 21.376C131.71 21.2907 131.39 21.248 131.092 21.248C130.58 21.248 130.26 21.312 130.132 21.44C130.004 21.568 129.918 21.7173 129.876 21.888L129.62 23.936C129.449 25.3013 129.257 26.624 129.044 27.904C128.873 29.1413 128.66 30.2507 128.404 31.232C128.19 32.1707 127.913 32.9387 127.572 33.536C127.273 34.0907 126.91 34.368 126.484 34.368H126.42C126.249 34.368 126.078 34.3253 125.908 34.24C125.78 34.1547 125.716 33.9413 125.716 33.6C125.716 33.4293 125.758 33.1733 125.844 32.832C126.185 31.3387 126.398 30.1013 126.484 29.12C126.569 28.1387 126.633 27.264 126.676 26.496V26.048C126.676 25.8347 126.676 25.5787 126.676 25.28C126.718 24.9813 126.74 24.6187 126.74 24.192V22.528C126.74 22.0587 126.74 21.568 126.74 21.056C126.74 20.544 126.697 19.9893 126.612 19.392L126.42 15.616C126.42 15.36 126.526 15.1253 126.74 14.912C126.953 14.6987 127.23 14.5067 127.572 14.336C127.913 14.1653 128.276 14.0373 128.66 13.952C129.044 13.8667 129.385 13.824 129.684 13.824C130.409 13.824 130.772 14.2933 130.772 15.232V15.552L130.708 16.96V17.344C130.708 17.6427 130.772 17.8347 130.9 17.92C131.028 17.9627 131.284 18.0267 131.668 18.112H131.86C132.201 18.1547 132.756 18.1973 133.524 18.24C134.292 18.2827 135.06 18.368 135.828 18.496C136.596 18.624 137.257 18.8373 137.812 19.136C138.409 19.392 138.708 19.776 138.708 20.288C138.708 20.4587 138.665 20.7147 138.58 21.056C138.494 21.3547 138.388 21.6747 138.26 22.016C138.132 22.3147 138.025 22.592 137.94 22.848C137.854 23.104 137.812 23.2747 137.812 23.36C137.044 26.304 136.66 29.376 136.66 32.576C136.66 32.832 136.681 33.3013 136.724 33.984C136.766 34.6667 136.852 35.3707 136.98 36.096C137.108 36.8213 137.3 37.4613 137.556 38.016C137.812 38.5707 138.132 38.848 138.516 38.848C139.156 38.848 139.732 38.464 140.244 37.696C140.756 36.8853 141.204 35.968 141.588 34.944C141.972 33.8773 142.27 32.8107 142.484 31.744C142.74 30.6773 142.91 29.888 142.996 29.376C143.081 28.9067 143.209 28.6293 143.38 28.544C143.593 28.416 143.785 28.352 143.956 28.352C144.553 28.352 144.852 28.736 144.852 29.504C144.852 29.5893 144.83 29.824 144.788 30.208C144.788 30.5493 144.766 30.8053 144.724 30.976ZM168.207 33.024C168.122 33.6213 167.909 34.3253 167.567 35.136C167.226 35.9467 166.778 36.736 166.223 37.504C165.711 38.2293 165.093 38.848 164.367 39.36C163.685 39.872 162.917 40.128 162.063 40.128C160.783 40.128 159.653 39.6373 158.671 38.656C157.733 37.6747 157.157 36.288 156.943 34.496C156.687 35.1787 156.389 35.968 156.047 36.864C155.706 37.76 155.279 38.592 154.767 39.36C154.255 40.128 153.658 40.768 152.975 41.28C152.335 41.8347 151.567 42.112 150.671 42.112C150.415 42.112 150.223 42.0907 150.095 42.048C149.967 42.0053 149.818 41.9413 149.647 41.856C149.519 41.8133 149.349 41.7707 149.135 41.728C148.965 41.6853 148.709 41.664 148.367 41.664C147.343 41.664 146.469 41.3227 145.743 40.64C145.061 40 144.506 39.168 144.079 38.144C143.653 37.12 143.333 36.0107 143.119 34.816C142.949 33.5787 142.863 32.4267 142.863 31.36C142.863 28.8 142.991 26.368 143.247 24.064C143.546 21.76 144.015 19.7333 144.655 17.984C145.295 16.192 146.127 14.784 147.151 13.76C148.175 12.6933 149.413 12.16 150.863 12.16C151.717 12.16 152.357 12.2453 152.783 12.416C153.253 12.544 153.679 12.7147 154.063 12.928C154.447 13.0987 154.853 13.2907 155.279 13.504C155.749 13.7173 156.389 13.888 157.199 14.016C158.095 14.528 158.714 15.1467 159.055 15.872C159.439 16.5547 159.674 17.3013 159.759 18.112C159.887 18.9227 159.93 19.776 159.887 20.672C159.845 21.5253 159.887 22.3787 160.015 23.232C160.015 23.2747 160.101 23.3387 160.271 23.424C160.485 23.5093 160.719 23.616 160.975 23.744C161.231 23.8293 161.445 23.9787 161.615 24.192C161.829 24.3627 161.935 24.5973 161.935 24.896V25.152C161.509 26.2613 161.253 27.2427 161.167 28.096C161.082 28.9493 161.039 29.9733 161.039 31.168C161.039 31.7653 161.061 32.4267 161.103 33.152C161.189 33.8347 161.295 34.496 161.423 35.136C161.594 35.7333 161.829 36.2453 162.127 36.672C162.426 37.056 162.81 37.248 163.279 37.248C163.791 37.248 164.239 36.992 164.623 36.48C165.05 35.968 165.391 35.392 165.647 34.752C165.946 34.0693 166.181 33.3867 166.351 32.704C166.565 32.0213 166.693 31.5093 166.735 31.168C166.821 30.656 167.034 30.4 167.375 30.4C167.589 30.4 167.781 30.528 167.951 30.784C168.165 30.9973 168.271 31.4027 168.271 32C168.271 32.1707 168.271 32.3413 168.271 32.512C168.271 32.64 168.25 32.8107 168.207 33.024ZM156.367 22.656C156.367 22.1867 156.325 21.632 156.239 20.992C156.154 20.352 156.005 19.7547 155.791 19.2C155.578 18.6453 155.258 18.176 154.831 17.792C154.405 17.408 153.829 17.216 153.103 17.216C151.909 17.216 150.927 17.7707 150.159 18.88C149.434 19.9467 148.858 21.2267 148.431 22.72C148.005 24.1707 147.727 25.6853 147.599 27.264C147.471 28.8 147.407 30.016 147.407 30.912C147.407 31.5947 147.429 32.4267 147.471 33.408C147.557 34.3467 147.685 35.2427 147.855 36.096C148.026 36.9493 148.261 37.6747 148.559 38.272C148.901 38.8693 149.327 39.168 149.839 39.168C151.077 39.168 152.015 38.6987 152.655 37.76C153.338 36.7787 153.85 35.584 154.191 34.176C154.533 32.7253 154.767 31.1893 154.895 29.568C155.066 27.904 155.215 26.3893 155.343 25.024C155.429 24.2987 155.621 23.8507 155.919 23.68C156.218 23.4667 156.367 23.3173 156.367 23.232V22.656ZM176.097 26.048C175.457 26.944 174.924 27.9467 174.497 29.056C174.113 30.1227 173.772 31.2533 173.473 32.448C173.175 33.6 172.919 34.7733 172.705 35.968C172.535 37.12 172.343 38.2293 172.129 39.296C172.044 39.552 171.703 39.7227 171.105 39.808C170.551 39.8933 170.145 39.936 169.889 39.936C169.121 39.936 168.481 39.8933 167.969 39.808C167.5 39.7227 167.137 39.5307 166.881 39.232C166.625 38.8907 166.433 38.4 166.305 37.76C166.177 37.0773 166.071 36.1813 165.985 35.072L166.817 16.064C166.817 15.5093 167.116 15.232 167.713 15.232C167.927 15.232 168.225 15.2747 168.609 15.36C168.993 15.4027 169.399 15.488 169.825 15.616C170.252 15.744 170.615 15.9147 170.913 16.128C171.212 16.2987 171.361 16.512 171.361 16.768V29.76C171.404 29.7173 171.468 29.5467 171.553 29.248C171.852 28.48 172.215 27.5413 172.641 26.432C173.068 25.28 173.537 24.192 174.049 23.168C174.561 22.144 175.095 21.2693 175.649 20.544C176.247 19.8187 176.844 19.456 177.441 19.456C178.209 19.456 178.785 19.648 179.169 20.032C179.596 20.3733 179.916 20.8213 180.129 21.376C180.343 21.9307 180.471 22.528 180.513 23.168C180.556 23.808 180.577 24.4267 180.577 25.024C180.577 25.4507 180.535 26.1547 180.449 27.136C180.364 28.1173 180.321 29.5893 180.321 31.552C180.321 32.6613 180.428 33.664 180.641 34.56C180.855 35.456 181.281 35.904 181.921 35.904C182.391 35.904 182.817 35.6907 183.201 35.264C183.585 34.8373 183.927 34.304 184.225 33.664C184.567 33.024 184.844 32.3413 185.057 31.616C185.271 30.8907 185.399 30.208 185.441 29.568C185.484 28.7573 185.804 28.352 186.401 28.352C186.785 28.352 187.041 28.48 187.169 28.736C187.297 28.992 187.361 29.2907 187.361 29.632V29.76C187.319 30.6133 187.148 31.5733 186.849 32.64C186.593 33.7067 186.188 34.7093 185.633 35.648C185.121 36.5867 184.439 37.376 183.585 38.016C182.732 38.656 181.687 38.976 180.449 38.976C178.529 38.976 177.292 38.2933 176.737 36.928C176.225 35.52 175.969 33.4507 175.969 30.72L176.097 26.048ZM195.597 26.048C194.957 26.944 194.424 27.9467 193.997 29.056C193.613 30.1227 193.272 31.2533 192.973 32.448C192.675 33.6 192.419 34.7733 192.205 35.968C192.035 37.12 191.843 38.2293 191.629 39.296C191.544 39.552 191.203 39.7227 190.605 39.808C190.051 39.8933 189.645 39.936 189.389 39.936C188.621 39.936 187.981 39.8933 187.469 39.808C187 39.7227 186.637 39.5307 186.381 39.232C186.125 38.8907 185.933 38.4 185.805 37.76C185.677 37.0773 185.571 36.1813 185.485 35.072L186.317 16.064C186.317 15.5093 186.616 15.232 187.213 15.232C187.427 15.232 187.725 15.2747 188.109 15.36C188.493 15.4027 188.899 15.488 189.325 15.616C189.752 15.744 190.115 15.9147 190.413 16.128C190.712 16.2987 190.861 16.512 190.861 16.768V29.76C190.904 29.7173 190.968 29.5467 191.053 29.248C191.352 28.48 191.715 27.5413 192.141 26.432C192.568 25.28 193.037 24.192 193.549 23.168C194.061 22.144 194.595 21.2693 195.149 20.544C195.747 19.8187 196.344 19.456 196.941 19.456C197.709 19.456 198.285 19.648 198.669 20.032C199.096 20.3733 199.416 20.8213 199.629 21.376C199.843 21.9307 199.971 22.528 200.013 23.168C200.056 23.808 200.077 24.4267 200.077 25.024C200.077 25.4507 200.035 26.1547 199.949 27.136C199.864 28.1173 199.821 29.5893 199.821 31.552C199.821 32.6613 199.928 33.664 200.141 34.56C200.355 35.456 200.781 35.904 201.421 35.904C201.891 35.904 202.317 35.6907 202.701 35.264C203.085 34.8373 203.427 34.304 203.725 33.664C204.067 33.024 204.344 32.3413 204.557 31.616C204.771 30.8907 204.899 30.208 204.941 29.568C204.984 28.7573 205.304 28.352 205.901 28.352C206.285 28.352 206.541 28.48 206.669 28.736C206.797 28.992 206.861 29.2907 206.861 29.632V29.76C206.819 30.6133 206.648 31.5733 206.349 32.64C206.093 33.7067 205.688 34.7093 205.133 35.648C204.621 36.5867 203.939 37.376 203.085 38.016C202.232 38.656 201.187 38.976 199.949 38.976C198.029 38.976 196.792 38.2933 196.237 36.928C195.725 35.52 195.469 33.4507 195.469 30.72L195.597 26.048ZM224.633 39.616C224.633 39.9573 224.548 40.192 224.377 40.32C224.207 40.448 224.015 40.5333 223.801 40.576C223.588 40.6187 223.353 40.64 223.097 40.64C222.884 40.6827 222.735 40.768 222.649 40.896V51.072C222.649 51.8827 222.628 52.7573 222.585 53.696C222.585 54.6773 222.5 55.6373 222.329 56.576C222.159 57.5147 221.881 58.3893 221.497 59.2C221.156 60.0107 220.644 60.672 219.961 61.184C219.919 61.2267 219.769 61.312 219.513 61.44C219.3 61.6107 219.044 61.7813 218.745 61.952C218.489 62.1653 218.233 62.3573 217.977 62.528C217.721 62.6987 217.551 62.8053 217.465 62.848C216.868 63.232 216.377 63.68 215.993 64.192C215.652 64.704 215.204 64.96 214.649 64.96C214.436 64.96 214.265 64.9387 214.137 64.896C214.052 64.896 213.945 64.8747 213.817 64.832C213.732 64.7893 213.583 64.7253 213.369 64.64C213.199 64.5973 212.943 64.5333 212.601 64.448C210.681 64.064 209.337 63.488 208.569 62.72C207.844 61.9947 207.481 60.8 207.481 59.136C207.481 57.4293 207.737 55.6587 208.249 53.824C208.761 51.9893 209.465 50.2187 210.361 48.512C211.257 46.8053 212.324 45.2053 213.561 43.712C214.799 42.2613 216.143 41.024 217.593 40V31.808C217.38 32.6187 217.124 33.5573 216.825 34.624C216.527 35.6907 216.143 36.6933 215.673 37.632C215.247 38.5707 214.735 39.36 214.137 40C213.54 40.64 212.836 40.96 212.025 40.96C211.3 40.96 210.511 40.704 209.657 40.192C208.804 39.68 208.036 39.168 207.353 38.656C206.841 38.2293 206.436 37.568 206.137 36.672C205.839 35.7333 205.604 34.752 205.433 33.728C205.305 32.704 205.22 31.7227 205.177 30.784C205.135 29.8453 205.113 29.1627 205.113 28.736C205.113 27.072 205.135 25.344 205.177 23.552C205.22 21.7173 205.327 20.032 205.497 18.496C205.668 16.96 205.924 15.7013 206.265 14.72C206.607 13.696 207.055 13.184 207.609 13.184C207.78 13.184 208.121 13.2267 208.633 13.312C209.145 13.3973 209.679 13.5467 210.233 13.76C210.788 13.9307 211.279 14.1867 211.705 14.528C212.132 14.8267 212.345 15.2107 212.345 15.68C212.345 15.808 212.281 15.9147 212.153 16C212.068 16.0427 211.983 16.1067 211.897 16.192C211.641 16.3627 211.407 16.704 211.193 17.216C210.98 17.6853 210.788 18.3893 210.617 19.328C210.489 20.224 210.383 21.4187 210.297 22.912C210.212 24.3627 210.169 26.1547 210.169 28.288C210.169 31.488 210.276 33.7707 210.489 35.136C210.745 36.5013 211.236 37.184 211.961 37.184C212.729 37.184 213.412 36.608 214.009 35.456C214.649 34.304 215.225 32.7893 215.737 30.912C216.249 29.0347 216.719 26.9013 217.145 24.512C217.572 22.1227 217.956 19.712 218.297 17.28C218.724 17.28 219.193 17.3013 219.705 17.344C220.26 17.3867 220.772 17.472 221.241 17.6C221.753 17.728 222.18 17.8987 222.521 18.112C222.863 18.2827 223.033 18.5387 223.033 18.88C223.033 19.0933 222.905 19.2427 222.649 19.328V38.272C223.119 38.3147 223.567 38.4213 223.993 38.592C224.42 38.72 224.633 39.0613 224.633 39.616ZM217.593 42.752C216.569 43.5627 215.652 44.608 214.841 45.888C214.031 47.168 213.327 48.512 212.729 49.92C212.175 51.3707 211.748 52.8 211.449 54.208C211.151 55.616 211.001 56.832 211.001 57.856C211.001 58.0693 211.001 58.4107 211.001 58.88C211.044 59.392 211.151 59.8827 211.321 60.352C211.492 60.8213 211.727 61.2267 212.025 61.568C212.367 61.952 212.857 62.144 213.497 62.144C214.436 62.144 215.161 61.632 215.673 60.608C216.228 59.6267 216.633 58.4533 216.889 57.088C217.188 55.7653 217.38 54.4213 217.465 53.056C217.551 51.7333 217.593 50.752 217.593 50.112V49.856V42.752Z" fill="#010101"/>
</svg>
